<svg width="24" height="24" viewBox="0 0 24 24" fill="none" xmlns="http://www.w3.org/2000/svg">
<path d="M9.87894 16.9484L15.5358 11.2916C16.3179 10.5095 16.3207 9.24239 15.5415 8.4575V8.4575C14.7587 7.66766 13.4817 7.66483 12.6953 8.45113L7.7456 13.4009" stroke="#838B97" stroke-width="1.5" stroke-linecap="round" stroke-linejoin="round"/>
<path d="M11.293 5.6348L4.89369 12.0341" stroke="#838B97" stroke-width="1.5" stroke-linecap="round" stroke-linejoin="round"/>
<path d="M18.3643 12.7071L13.4145 17.6568" stroke="#838B97" stroke-width="1.5" stroke-linecap="round" stroke-linejoin="round"/>
<path d="M9.87895 16.9497L9.52539 17.3033C8.15856 18.6701 5.94248 18.6701 4.57565 17.3033V17.3033C3.20881 15.9365 3.20881 13.7204 4.57565 12.3536L4.9292 12" stroke="#838B97" stroke-width="1.5" stroke-linecap="round" stroke-linejoin="round"/>
<path d="M18.3641 12.7062V12.7062C20.3165 10.7539 20.3165 7.58746 18.3641 5.63514V5.63514C16.4118 3.68282 13.2454 3.68282 11.2931 5.63514V5.63514" stroke="#838B97" stroke-width="1.5" stroke-linecap="round" stroke-linejoin="round"/>
</svg>
