<svg width="32" height="32" viewBox="0 0 32 32" fill="none" xmlns="http://www.w3.org/2000/svg">
<path d="M13.8789 20.9484L19.5358 15.2916C20.3179 14.5095 20.3207 13.2424 19.5415 12.4575V12.4575C18.7587 11.6677 17.4817 11.6648 16.6953 12.4511L11.7456 17.4009" stroke="#60B768" stroke-width="1.5" stroke-linecap="round" stroke-linejoin="round"/>
<path d="M15.293 9.6348L8.89369 16.0341" stroke="#60B768" stroke-width="1.5" stroke-linecap="round" stroke-linejoin="round"/>
<path d="M22.3643 16.7071L17.4145 21.6568" stroke="#60B768" stroke-width="1.5" stroke-linecap="round" stroke-linejoin="round"/>
<path d="M13.8789 20.9497L13.5254 21.3033C12.1586 22.6701 9.94248 22.6701 8.57565 21.3033V21.3033C7.20881 19.9365 7.20881 17.7204 8.57565 16.3536L8.9292 16" stroke="#60B768" stroke-width="1.5" stroke-linecap="round" stroke-linejoin="round"/>
<path d="M22.3641 16.7062V16.7062C24.3165 14.7539 24.3165 11.5875 22.3641 9.63514V9.63514C20.4118 7.68282 17.2454 7.68282 15.2931 9.63514V9.63514" stroke="#60B768" stroke-width="1.5" stroke-linecap="round" stroke-linejoin="round"/>
</svg>
