<svg width="20" height="20" viewBox="0 0 20 20" fill="none" xmlns="http://www.w3.org/2000/svg">
<path d="M18.5165 13.2324C18.0312 12.6781 17.3219 12.2937 16.52 12.1499C15.2522 11.9227 14.0484 11.839 12.917 11.8599C11.8873 10.82 10.8917 9.59245 10.2122 8.2441C10.8065 6.28383 11.1209 4.5887 11.2978 3.63368C11.3889 3.14276 11.2528 2.62047 10.9335 2.23644C10.6317 1.87384 10.1953 1.66602 9.73596 1.66602C9.73558 1.66602 9.73526 1.66602 9.73489 1.66602C9.28824 1.66621 8.90876 1.84873 8.63762 2.19374C7.72991 3.34958 8.35029 6.14754 8.48431 6.6981C8.62149 7.25587 8.81629 7.79884 9.05581 8.32518C8.58456 9.81072 7.94905 11.424 7.08884 12.9503C4.2177 13.9974 2.50713 15.4364 2.36679 15.5574C1.89022 16.0209 1.65463 16.4863 1.66696 16.9411C1.67398 17.1987 1.76651 17.5795 2.16813 17.9302C2.47582 18.1985 2.86941 18.3327 3.26925 18.3327C3.67473 18.3327 4.0869 18.1947 4.42173 17.9191C5.80772 16.7786 6.91833 15.3633 7.80947 13.8601C9.1434 13.4058 10.7228 13.0469 12.5002 12.9618C13.7786 14.1995 15.0527 15.1444 15.8518 15.6928C16.7004 16.2751 17.8346 16.1996 18.5496 15.5141C19.2182 14.8721 19.2059 14.0191 18.5165 13.2324ZM3.73532 17.0849C3.47822 17.2966 3.10121 17.3107 2.87864 17.1162C2.7932 17.0413 2.74886 16.9727 2.74709 16.912C2.7457 16.8623 2.76853 16.6736 3.09526 16.3545C3.11917 16.3342 4.19183 15.432 6.06557 14.5605C5.39807 15.4905 4.62684 16.3512 3.73532 17.0849ZM9.48746 2.86106C9.54306 2.79035 9.6039 2.74639 9.73577 2.74639C9.92424 2.74639 10.0467 2.85979 10.1029 2.92734C10.2194 3.06731 10.2689 3.25774 10.2359 3.4366V3.43679C10.1065 4.13383 9.90141 5.24058 9.56273 6.55554C9.55286 6.51753 9.54306 6.47958 9.53351 6.44145C9.25288 5.28745 9.05309 3.41402 9.48746 2.86106ZM8.55616 12.4843C9.02987 11.5304 9.42555 10.5649 9.75683 9.63097C10.27 10.4611 10.8762 11.236 11.5135 11.9416C10.4479 12.0456 9.45932 12.239 8.55616 12.4843ZM17.8012 14.7347C17.4548 15.068 16.8917 15.0957 16.4631 14.8019C15.8744 14.3978 15.0127 13.7672 14.0906 12.9606C14.8109 12.9942 15.5582 13.0751 16.3294 13.2133C16.891 13.3139 17.3792 13.5734 17.7041 13.9441C18.1244 14.4244 17.9377 14.6037 17.8012 14.7347Z" fill="#E56353"/>
</svg>
